<?xml version="1.0" encoding="UTF-8" standalone="no"?>
<svg
   xmlns:dc="http://purl.org/dc/elements/1.1/"
   xmlns:cc="http://creativecommons.org/ns#"
   xmlns:rdf="http://www.w3.org/1999/02/22-rdf-syntax-ns#"
   xmlns:svg="http://www.w3.org/2000/svg"
   xmlns="http://www.w3.org/2000/svg"
   xmlns:sodipodi="http://sodipodi.sourceforge.net/DTD/sodipodi-0.dtd"
   xmlns:inkscape="http://www.inkscape.org/namespaces/inkscape"
   sodipodi:docname="explorer_icons.svg"
   inkscape:version="1.0 (unknown)"
   id="svg8"
   version="1.1"
   viewBox="0 0 210 297"
   height="297mm"
   width="210mm">
  <defs
     id="defs2" />
  <sodipodi:namedview
     inkscape:window-maximized="1"
     inkscape:window-y="0"
     inkscape:window-x="0"
     inkscape:window-height="1019"
     inkscape:window-width="1920"
     showgrid="false"
     inkscape:document-rotation="0"
     inkscape:current-layer="layer1"
     inkscape:document-units="mm"
     inkscape:cy="31.0415"
     inkscape:cx="329.89672"
     inkscape:zoom="3.0142472"
     inkscape:pageshadow="2"
     inkscape:pageopacity="0.0"
     borderopacity="1.0"
     bordercolor="#666666"
     pagecolor="#ffffff"
     id="base"
     inkscape:snap-global="false" />
  <metadata
     id="metadata5">
    <rdf:RDF>
      <cc:Work
         rdf:about="">
        <dc:format>image/svg+xml</dc:format>
        <dc:type
           rdf:resource="http://purl.org/dc/dcmitype/StillImage" />
        <dc:title />
      </cc:Work>
    </rdf:RDF>
  </metadata>
  <g
     id="layer1"
     inkscape:groupmode="layer"
     inkscape:label="Ebene 1">
    <rect
       inkscape:export-ydpi="300"
       inkscape:export-xdpi="300"
       y="0.357191"
       x="76.163872"
       height="12.451639"
       width="12.451639"
       id="rect843"
       style="fill:#cccccc;stroke-width:1" />
    <g
       id="g853"
       transform="matrix(0.31271072,0,0,0.31271072,41.605034,1.0199728)"
       style="stroke-width:3.19783"
       inkscape:export-xdpi="300"
       inkscape:export-ydpi="300">
      <rect
         y="1.3937423"
         x="60.927418"
         height="34.974201"
         width="34.008675"
         id="rect842"
         style="fill:#e4b67a;fill-opacity:1;stroke:#b7813c;stroke-width:3.19783;stroke-opacity:1" />
      <rect
         y="-0.67264628"
         x="76.335632"
         height="39.106976"
         width="3.1922452"
         id="rect846"
         style="fill:#905c18;fill-opacity:1;stroke:#000000;stroke-width:3.19783;stroke-miterlimit:4;stroke-dasharray:none;stroke-opacity:0" />
      <rect
         transform="rotate(90)"
         style="fill:#905c18;fill-opacity:1;stroke:#000000;stroke-width:3.19783;stroke-miterlimit:4;stroke-dasharray:none;stroke-opacity:0"
         id="rect848"
         width="3.1922452"
         height="39.106976"
         x="17.284719"
         y="-97.485245" />
    </g>
    <g
       aria-label="f"
       id="text857"
       style="font-style:normal;font-variant:normal;font-weight:normal;font-stretch:normal;font-size:45.5719px;line-height:1.25;font-family:'Droid Serif';-inkscape-font-specification:'Droid Serif';letter-spacing:0px;word-spacing:0px;fill:#1485cc;fill-opacity:1;stroke-width:0.779806"
       inkscape:export-xdpi="300"
       inkscape:export-ydpi="300"
       transform="matrix(0.33929396,0,0,0.33929396,40.072175,0.14212893)">
      <path
         d="m 129.41743,34.615152 v 1.913664 h -14.08545 v -1.913664 h 0.6008 q 0.77882,0 1.44637,-0.111259 0.68981,-0.11126 1.17935,-0.445038 0.5118,-0.356031 0.80107,-1.001336 0.31153,-0.645305 0.31153,-1.713396 V 14.25466 h -4.16111 v -2.158434 h 4.16111 V 9.8265314 q 0,-2.0471752 0.5563,-3.6048084 0.55629,-1.5576333 1.60213,-2.6257247 1.04584,-1.0680914 2.53672,-1.6021371 1.49088,-0.5562976 3.36004,-0.5562976 1.78015,0 3.00401,0.2447709 1.22385,0.2225191 1.95816,0.6453053 0.75657,0.4227861 1.09035,1.0013356 0.33378,0.5785495 0.33378,1.2906105 0,0.6230533 -0.28928,1.1125952 -0.26702,0.46729 -0.77882,0.8010685 -0.48954,0.3115267 -1.17935,0.4895419 -0.66755,0.1557633 -1.49087,0.1557633 0,-0.689809 -0.15577,-1.3351142 -0.13351,-0.6675571 -0.48954,-1.1793509 -0.33378,-0.5117938 -0.91233,-0.8233205 -0.57855,-0.3115266 -1.44637,-0.3115266 -0.97909,0 -1.64664,0.3782823 -0.64531,0.3782824 -1.04584,1.1348471 -0.40054,0.7343129 -0.57855,1.8246562 -0.15576,1.0903433 -0.15576,2.536717 v 2.6924808 h 6.4308 v 2.158434 h -6.4308 v 17.089463 q 0,1.068091 0.28927,1.713396 0.31153,0.645305 0.80107,1.001336 0.51179,0.333778 1.2016,0.445038 0.68981,0.111259 1.44638,0.111259 z"
         style="font-style:normal;font-variant:normal;font-weight:normal;font-stretch:normal;font-size:45.5719px;font-family:'Droid Serif';-inkscape-font-specification:'Droid Serif';fill:#1485cc;fill-opacity:1;stroke-width:0.779806"
         id="path868" />
    </g>
    <g
       id="g904"
       transform="matrix(0.35297546,0,0,0.35297556,40.091353,-15.118793)"
       inkscape:export-xdpi="300"
       inkscape:export-ydpi="300"
       style="stroke-width:2.83306">
      <circle
         r="17.204823"
         cy="63.526226"
         cx="27.385653"
         id="path898"
         style="fill:#ffffff;fill-opacity:1;stroke:none;stroke-width:2.83306;stroke-miterlimit:4;stroke-dasharray:none;stroke-opacity:1" />
      <path
         d="M 27.403091,46.090893 A 17.322977,17.322977 0 0 0 10.106989,63.413867 17.322977,17.322977 0 0 0 27.429963,80.736842 17.322977,17.322977 0 0 0 44.752935,63.413867 17.322977,17.322977 0 0 0 27.429963,46.090893 a 17.322977,17.322977 0 0 0 -0.02687,0 z m -0.05116,1.718241 a 15.604836,15.604836 0 0 1 0.07803,0 15.604836,15.604836 0 0 1 14.941206,11.102681 h -6.263701 a 9.7754926,9.7754926 0 0 0 -8.677505,-5.273579 9.7754926,9.7754926 0 0 0 -9.775631,9.775631 9.7754926,9.7754926 0 0 0 9.775631,9.775632 9.7754926,9.7754926 0 0 0 8.676989,-5.273582 h 6.264217 A 15.604836,15.604836 0 0 1 27.429963,79.018598 15.604836,15.604836 0 0 1 11.82523,63.413867 15.604836,15.604836 0 0 1 27.351931,47.809134 Z"
         style="fill:#44448f;fill-opacity:1;stroke:#353559;stroke-width:2.83305;stroke-miterlimit:4;stroke-dasharray:none;stroke-opacity:1"
         id="path883" />
    </g>
    <circle
       style="fill:#fffc19;fill-opacity:1;stroke:#ecbd00;stroke-width:0.999996;stroke-miterlimit:4;stroke-dasharray:none;stroke-opacity:1"
       id="path875"
       cx="98.678406"
       cy="6.8844075"
       r="6.0721784"
       inkscape:export-xdpi="300"
       inkscape:export-ydpi="300" />
  </g>
</svg>
